<?xml version="1.0" standalone="no"?>
<!DOCTYPE svg PUBLIC "-//W3C//DTD SVG 20010904//EN"
 "http://www.w3.org/TR/2001/REC-SVG-20010904/DTD/svg10.dtd">
<svg version="1.0" xmlns="http://www.w3.org/2000/svg"
 width="512.000000pt" height="512.000000pt" viewBox="0 0 512.000000 512.000000"
 preserveAspectRatio="xMidYMid meet">
<metadata>
Created by potrace 1.14, written by Peter Selinger 2001-2017
</metadata>
<g transform="translate(0.000000,512.000000) scale(0.100000,-0.100000)"
fill="#000000" stroke="none">
<path d="M2637 5110 c-83 -21 -154 -71 -199 -141 -17 -27 -32 -49 -33 -49 -2
0 -22 7 -45 15 -61 21 -158 19 -224 -5 -68 -26 -140 -89 -171 -151 l-25 -48
-86 3 -85 3 -21 34 c-60 101 -153 159 -265 167 -85 5 -144 -9 -208 -49 l-45
-28 -32 18 c-106 60 -285 75 -402 32 -167 -60 -294 -205 -327 -373 l-12 -58
-58 0 c-195 0 -354 -185 -319 -372 9 -48 8 -54 -14 -77 -45 -48 -60 -91 -60
-166 0 -78 15 -118 68 -173 35 -38 85 -66 133 -77 18 -3 33 -8 33 -9 0 -28
353 -2761 360 -2786 19 -69 92 -149 165 -182 23 -10 143 -14 505 -18 l475 -5
5 -182 c6 -201 9 -212 80 -260 l33 -23 729 0 729 0 57 -29 c77 -38 189 -76
292 -97 162 -35 469 -19 570 29 34 17 49 61 30 94 -26 46 -41 49 -137 29 -373
-78 -742 35 -1001 308 -463 488 -377 1282 180 1652 542 361 1266 159 1550
-433 27 -56 61 -146 75 -200 23 -86 26 -118 27 -263 0 -138 -3 -179 -22 -253
-64 -257 -190 -448 -420 -639 -51 -42 -38 -117 24 -132 38 -10 109 41 223 159
613 634 383 1693 -437 2010 -341 131 -747 95 -1057 -94 -44 -27 -81 -48 -82
-48 -1 1 38 309 85 684 l87 681 55 16 c109 30 180 126 180 240 0 78 -27 138
-85 192 l-44 41 27 64 c23 56 26 77 26 169 0 123 -15 173 -80 271 -72 109
-177 178 -317 208 l-80 17 -12 45 c-15 60 -57 130 -97 165 -78 65 -207 97
-301 74z m158 -159 c72 -33 106 -95 102 -185 -3 -80 10 -90 132 -97 79 -5 110
-11 154 -33 73 -35 133 -95 165 -164 23 -48 27 -71 27 -143 0 -75 -4 -92 -30
-145 l-31 -59 -1044 -5 c-575 -3 -1053 -9 -1062 -13 -41 -21 -37 -114 7 -131
9 -3 498 -6 1086 -6 1156 0 1111 2 1140 -51 14 -27 14 -81 0 -108 -29 -54 62
-51 -1650 -49 l-1581 3 -27 28 c-40 39 -40 105 0 144 l27 28 334 3 c317 3 334
4 355 23 28 26 28 79 0 105 -20 18 -45 19 -348 24 l-326 5 2 44 c3 58 40 113
95 140 53 25 107 27 169 5 53 -20 93 -13 110 17 6 12 12 62 13 112 2 107 21
159 82 227 76 84 180 126 290 117 63 -5 153 -39 201 -77 40 -31 83 -26 123 15
18 19 48 41 66 50 37 18 126 20 157 4 47 -24 88 -74 103 -127 22 -76 43 -87
137 -71 64 11 83 10 143 -4 38 -10 79 -17 92 -17 30 0 62 34 62 68 0 15 9 46
19 68 51 113 197 139 297 54 50 -45 79 -49 116 -20 19 14 27 32 31 71 16 131
144 204 262 150z m-345 -1353 c0 -7 -12 -144 -27 -304 l-27 -291 -55 20 c-165
59 -349 17 -482 -109 l-57 -55 -55 55 c-129 125 -324 169 -484 108 l-52 -20
-6 42 c-3 22 -14 140 -25 261 -11 121 -23 239 -26 263 l-5 42 650 0 c514 0
651 -3 651 -12z m-896 -732 c64 -31 134 -104 171 -175 45 -91 113 -90 156 1
31 66 110 147 174 178 41 20 65 24 130 24 118 -1 203 -47 270 -146 149 -220
70 -515 -206 -772 -95 -88 -253 -198 -370 -257 l-79 -39 -79 39 c-243 123
-469 322 -569 501 -86 155 -98 351 -30 484 25 49 103 133 143 154 95 49 198
52 289 8z m-2 -1227 c95 -55 229 -119 251 -119 44 0 320 156 430 242 21 17 40
28 42 26 4 -4 -56 -661 -71 -780 l-6 -48 -165 0 c-148 0 -169 -2 -202 -21 -46
-26 -78 -72 -87 -126 l-7 -43 -158 0 c-134 0 -159 2 -159 15 0 8 -20 225 -45
482 -25 256 -45 479 -45 494 l0 28 77 -55 c43 -31 108 -73 145 -95z m628
-1084 l0 -255 -140 0 -140 0 0 248 c0 137 3 252 7 255 3 4 66 7 140 7 l133 0
0 -255z m440 0 l0 -255 -140 0 -140 0 0 255 0 255 140 0 140 0 0 -255z m284
-39 c24 -34 77 -97 116 -139 l72 -77 -161 0 -161 0 0 227 0 227 45 -88 c24
-48 65 -116 89 -150z"/>
<path d="M3965 5102 c-116 -56 -160 -201 -100 -330 44 -94 202 -225 289 -239
66 -11 229 102 295 205 86 135 55 294 -71 356 -63 31 -104 33 -168 5 -45 -19
-50 -20 -73 -4 -40 26 -125 29 -172 7z m113 -154 c57 -71 100 -88 135 -50 8 9
27 29 41 45 31 33 40 34 73 1 21 -21 24 -32 19 -62 -8 -51 -51 -108 -118 -155
-55 -39 -59 -40 -84 -26 -41 21 -123 98 -139 130 -21 40 -19 95 5 119 26 26
46 25 68 -2z"/>
<path d="M4335 4126 c-62 -29 -117 -86 -147 -151 -19 -40 -23 -67 -23 -140 0
-83 3 -96 36 -165 41 -87 123 -181 213 -245 77 -54 196 -115 224 -115 13 0 51
14 85 31 179 91 310 219 368 360 31 75 32 205 3 270 -45 98 -133 166 -228 176
-74 8 -113 -1 -179 -41 -50 -30 -58 -32 -69 -18 -7 8 -35 26 -63 38 -68 32
-152 32 -220 0z"/>
<path d="M3732 3283 c-46 -23 -97 -86 -112 -139 -42 -150 75 -326 277 -416 52
-23 69 -19 169 44 78 48 148 123 179 191 52 110 22 241 -67 304 -53 36 -145
43 -199 15 -36 -18 -38 -18 -70 -1 -43 23 -133 24 -177 2z m117 -145 c6 -7 21
-26 33 -41 37 -45 83 -41 128 11 38 45 63 52 92 25 49 -44 -2 -156 -102 -224
-53 -36 -55 -37 -84 -22 -49 25 -134 113 -147 150 -11 35 -6 78 13 100 13 17
54 17 67 1z"/>
<path d="M3800 2170 c-76 -40 -130 -126 -130 -205 0 -80 55 -166 132 -206 46
-23 134 -25 186 -3 181 75 181 343 0 418 -51 22 -144 20 -188 -4z m156 -152
c23 -25 23 -82 -1 -108 -28 -31 -88 -27 -114 6 -25 32 -27 62 -5 92 30 43 87
48 120 10z"/>
<path d="M3295 1957 c-60 -29 -87 -57 -114 -117 -27 -60 -26 -123 3 -186 55
-119 187 -166 304 -108 207 103 146 412 -85 430 -47 4 -67 0 -108 -19z m146
-156 c16 -16 29 -39 29 -51 0 -30 -53 -80 -85 -80 -36 0 -75 41 -75 80 0 39
39 80 75 80 16 0 38 -12 56 -29z"/>
<path d="M4332 1967 c-151 -55 -198 -256 -86 -371 48 -49 95 -69 165 -69 176
-1 282 186 193 340 -54 94 -170 136 -272 100z m133 -162 c33 -33 32 -70 -4
-106 -37 -37 -65 -37 -103 1 -25 26 -29 36 -24 63 13 65 85 89 131 42z"/>
<path d="M3800 1601 c-188 -62 -305 -249 -270 -431 39 -207 237 -349 432 -310
300 59 417 408 211 630 -77 84 -141 113 -258 117 -49 1 -101 -1 -115 -6z m198
-160 c142 -73 172 -259 61 -370 -57 -57 -130 -78 -208 -61 -109 24 -196 151
-176 257 14 75 62 141 130 176 43 23 146 22 193 -2z"/>
<path d="M3084 1441 c-84 -38 -142 -142 -132 -235 11 -95 96 -185 189 -201 91
-15 196 40 240 128 24 45 28 133 9 182 -45 117 -192 178 -306 126z m136 -141
c25 -13 41 -65 30 -95 -21 -57 -102 -70 -135 -22 -48 68 31 157 105 117z"/>
<path d="M4523 1439 c-86 -42 -127 -117 -121 -220 6 -118 84 -199 199 -207
195 -14 316 189 209 350 -60 91 -189 126 -287 77z m155 -152 c41 -38 20 -109
-39 -129 -27 -10 -76 18 -87 50 -20 57 35 121 88 104 8 -3 25 -14 38 -25z"/>
<path d="M4370 941 c-107 -22 -182 -112 -182 -220 0 -99 43 -168 126 -207 94
-44 186 -28 256 45 86 88 92 205 16 305 -43 57 -141 92 -216 77z m79 -156 c89
-45 20 -175 -74 -139 -24 10 -46 60 -39 89 7 27 48 65 71 65 8 0 27 -7 42 -15z"/>
<path d="M3295 923 c-83 -43 -129 -118 -129 -208 0 -131 95 -225 229 -225 188
0 291 226 168 369 -50 59 -98 81 -175 81 -37 -1 -75 -7 -93 -17z m153 -159
c28 -31 28 -64 1 -98 -29 -37 -89 -37 -118 0 -25 32 -27 62 -5 92 33 47 82 49
122 6z"/>
<path d="M3801 704 c-149 -75 -170 -267 -41 -377 166 -142 420 25 360 237 -38
138 -190 204 -319 140z m154 -149 c45 -44 22 -115 -40 -131 -55 -14 -107 54
-84 108 22 53 83 65 124 23z"/>
</g>
</svg>
